<!DOCTYPE svg PUBLIC "-//W3C//DTD SVG 1.1//EN" "http://www.w3.org/Graphics/SVG/1.1/DTD/svg11.dtd">
<!-- Uploaded to: SVG Repo, www.svgrepo.com, Transformed by: SVG Repo Mixer Tools -->
<svg version="1.1" id="_x32_" xmlns="http://www.w3.org/2000/svg" xmlns:xlink="http://www.w3.org/1999/xlink" width="800px" height="800px" viewBox="0 0 512 512" xml:space="preserve" fill="#F7931A" stroke="#F7931A">
<g id="SVGRepo_bgCarrier" stroke-width="0"/>
<g id="SVGRepo_tracerCarrier" stroke-linecap="round" stroke-linejoin="round"/>
<g id="SVGRepo_iconCarrier"> <style type="text/css">  .st0{fill:#F7931A#000000;}  </style> <g> <path class="st0" d="M327.5,53.719c4.531-0.594,9.188-0.891,13.813-0.891c1.25,0,2.516,0.016,3.75,0.078h0.188 c2.703,0,4.938-2.156,5.031-4.875c0.094-2.781-2.078-5.125-4.859-5.219h-0.516h-0.063l0,0l-0.063-0.016h-0.016h-0.031h-0.031 h-0.016h-0.063h-0.016h-0.047c-0.75-0.016-1.5-0.047-2.25-0.047h-0.125h-0.031h-0.031h-0.016h-0.063h-0.016H342h-0.031h-0.031 h-0.031h-0.031h-0.047h-0.016h-0.031h-0.031h-0.031h-0.031h-0.047h-0.016h-0.047h-0.016H341.5l0,0h-0.063l0,0h-0.063l0,0h-0.063 h-0.063l0,0h-0.047h-0.016h-0.047h-0.016h-0.047h-0.016h-0.047H341h-0.031h-0.031h-0.031h-0.016h-0.047h-0.016h-0.047h-0.031 h-0.031h-0.016h-0.047l0,0h-0.063h-0.063l0,0h-0.047h-0.016h-0.047h-0.016h-0.047h-0.016h-0.047h-0.016h-0.031h-0.031h-0.031 h-0.016h-0.047h-0.016h-0.047h-0.031H340h-0.016h-0.047l0,0h-0.047h-0.016h-0.063l0,0h-0.047h-0.016h-0.047h-0.016h-0.031h-0.031 l-0.047,0.016h-0.016h-0.031H339.5h-0.031h-0.016h-0.047h-0.016h-0.047h-0.016h-0.047h-0.016h-0.031h-0.016h-0.047h-0.016h-0.063 l0,0h-0.047h-0.016L339,42.781h-0.031h-0.031h-0.031h-0.047h-0.016h-0.031h-0.031h-0.031h-0.016h-0.047l0,0h-0.063h-0.016h-0.047 l0,0h-0.047H338.5h-0.047h-0.016h-0.063l0,0h-0.047h-0.016h-0.031h-0.031h-0.031h-0.016l-0.047,0.016h-0.031h-0.031h-0.016h-0.047 l0,0h-0.047h-0.016h-0.063l0,0h-0.063l0,0h-0.047l-0.016,0.016h-0.031h-0.031h-0.047h-0.016h-0.031h-0.031h-0.031h-0.016H337.5 h-0.016h-0.047h-0.031h-0.031h-0.016h-0.031h-0.016h-0.047h-0.016h-0.063l0,0l-0.047,0.016h-0.016h-0.031h-0.031h-0.031H337h-0.031 h-0.031h-0.031l-0.016,0.016h-0.047l0,0h-0.063l0,0h-0.063l0,0h-0.063l0,0h-0.047h-0.016h-0.031h-0.031h-0.047h-0.016h-0.031 h-0.031l-0.031,0.016h-0.016h-0.047l0,0h-0.063h-0.016h-0.047h-0.016h-0.047l0,0h-0.047h-0.016H336l0,0h-0.047h-0.016l-0.031,0.016 h-0.031h-0.031h-0.016h-0.063h-0.047h-0.016h-0.047l0,0h-0.063h-0.063l-0.063,0.016l0,0h-0.047h-0.016h-0.047h-0.016l-0.109,0.016 h-0.047h-0.016h-0.047H335l0,0h-0.063l0,0l-0.047,0.016h-0.016h-0.094h-0.031l-0.031,0.016h-0.016h-0.047h-0.016h-0.109h-0.016 h-0.047l0,0h-0.063l-0.109,0.016h-0.016h-0.047h-0.016l-0.031,0.016h-0.016h-0.109h-0.016H334l0,0h-0.063l0,0l-0.125,0.016l0,0 h-0.047h-0.016L333.594,43h-0.016h-0.047h-0.016h-0.047l-0.125,0.016h-0.047h-0.016l-0.219,0.016 c-2.313,0.156-4.594,0.391-6.844,0.672c-2.75,0.344-4.719,2.875-4.375,5.641c0.344,2.547,2.5,4.406,5,4.406L327.5,53.719z"/> <path class="st0" d="M292.266,53.844c-0.734,0-1.469,0.156-2.172,0.5c-1.719,0.828-3.406,1.688-5.063,2.594l-0.313,0.156 l-0.063,0.031l-0.094,0.047v0.016l-0.047,0.016H284.5l-0.094,0.063l0,0l-0.047,0.031h-0.016l-0.031,0.016l-0.016,0.016 l-0.047,0.031l0,0l-0.047,0.016h-0.016l-0.031,0.031h-0.016l-0.047,0.031l0,0l-0.047,0.031h-0.016L284,57.484l-0.016,0.016 l-0.047,0.016v0.016l-0.031,0.016l-0.031,0.016h-0.031l-0.016,0.016l-0.016,0.016l-0.047,0.031h-0.016l-0.031,0.031h-0.016 l-0.031,0.016l-0.016,0.016l-0.047,0.016l-0.016,0.016l-0.031,0.016l-0.016,0.016h-0.031l-0.016,0.016l-0.063,0.047l-0.031,0.016 h-0.016l-0.031,0.016h-0.016l-0.094,0.063h-0.016l-0.031,0.031h-0.016L283.094,58l-0.047,0.031h-0.016l-0.141,0.078 c-2.047,1.156-4.047,2.359-6,3.641c-2.328,1.516-2.984,4.625-1.484,6.969c0.969,1.484,2.594,2.297,4.25,2.297 c0.938,0,1.891-0.266,2.734-0.813c3.859-2.5,7.922-4.766,12.063-6.766c2.516-1.203,3.578-4.219,2.375-6.719 C295.969,54.906,294.156,53.844,292.266,53.844z"/> <path class="st0" d="M230.734,130.219c-2.281,0-4.359,1.563-4.906,3.891c-1.141,4.859-1.984,9.844-2.516,14.922 c-0.281,2.766,1.734,5.25,4.5,5.531l0.531,0.016c2.547,0,4.75-1.922,5-4.516c0.469-4.594,1.25-9.172,2.313-13.641 c0.625-2.719-1.047-5.422-3.75-6.063L230.734,130.219z"/> <path class="st0" d="M248.938,86.938c-0.813,1.031-1.625,2.063-2.422,3.109l-0.078,0.109l-0.031,0.031l0,0l-0.094,0.141 l-0.125,0.141l0,0l-0.094,0.156l-0.109,0.125v0.016l-0.203,0.281c-1.344,1.797-2.625,3.641-3.844,5.531l0,0l-0.094,0.141 l-0.016,0.016l-0.016,0.031l-0.063,0.063v0.016v0.031h-0.016l-0.016,0.031v0.016l-0.063,0.063l-0.016,0.031v0.016l-0.016,0.031 h-0.016l-0.047,0.063v0.016l-0.016,0.016l-0.016,0.031l-0.016,0.016l-0.016,0.031v0.016l-0.031,0.047l-0.016,0.016l-0.016,0.016 l-0.016,0.016l-0.016,0.031v0.031l-0.031,0.031l-0.016,0.016l-0.016,0.047h-0.016l-0.016,0.031v0.016l-0.031,0.047h-0.016 l-0.016,0.047v0.016l-0.031,0.031v0.016l-0.063,0.094c-0.328,0.5-0.656,1-0.953,1.516c-1.453,2.359-0.719,5.469,1.641,6.922 c0.844,0.516,1.75,0.75,2.656,0.75c1.688,0,3.344-0.844,4.297-2.406c2.406-3.906,5.094-7.703,7.984-11.297 c1.75-2.156,1.406-5.344-0.766-7.094c-0.922-0.75-2.047-1.109-3.156-1.109C251.391,85.078,249.938,85.719,248.938,86.938z"/> <path class="st0" d="M383.969,266.797c0.859,1.844,2.688,2.938,4.594,2.938c0.703,0,1.422-0.141,2.094-0.453 c2.797-1.281,5.531-2.656,8.188-4.141l0.063-0.031l0.094-0.063l0.047-0.016h0.016l0.094-0.063l0.047-0.031h0.016l0.031-0.031 l0.063-0.031l0,0l0.031-0.016l0.031-0.016l0.031-0.016l0.016-0.016l0.047-0.016v-0.016l0.031-0.016l0.031-0.016l0.016-0.016 l0.016-0.016l0.063-0.016v-0.016l0.031-0.016h0.031l0.016-0.016l0.016-0.016l0.031-0.016l0.047-0.031h0.016l0.031-0.016 l0.016-0.016l0.016-0.016h0.031l0.063-0.047l0.031-0.016l0,0l0.047-0.016l0.109-0.078l0,0l0.047-0.016 c1.266-0.734,2.531-1.5,3.781-2.266c2.359-1.484,3.078-4.578,1.609-6.953c-0.969-1.516-2.609-2.375-4.281-2.375 c-0.922,0-1.844,0.25-2.672,0.781c-3.906,2.422-8,4.625-12.172,6.547C383.938,261.266,382.813,264.266,383.969,266.797z"/> <path class="st0" d="M424.641,230.906c-1.781,2.141-1.5,5.328,0.641,7.109c0.938,0.797,2.094,1.172,3.234,1.172 c1.438,0,2.875-0.609,3.859-1.813c2.625-3.109,5.063-6.375,7.344-9.766h0.016l0.031-0.047l0.063-0.094v-0.016l0.031-0.031h0.016 l0.016-0.047l0.031-0.063h0.016l0.016-0.031l0.016-0.031l0.016-0.016l0.016-0.016l0.031-0.047v-0.016l0.031-0.031v-0.016 l0.031-0.031v-0.016l0.031-0.031v-0.016l0.031-0.031v-0.016l0.031-0.031v-0.031l0.031-0.031l0.016-0.016l0.016-0.016l0.016-0.031 l0.016-0.016l0.063-0.109l0,0l0.016-0.031h0.016l0.063-0.109v-0.016l0.031-0.016V226.5l0.094-0.141v-0.016l0.766-1.156 c1.484-2.344,0.797-5.469-1.547-6.969c-0.828-0.531-1.781-0.781-2.703-0.781c-1.672,0-3.297,0.813-4.266,2.313 C430.344,223.625,427.594,227.391,424.641,230.906z"/> <path class="st0" d="M453.781,123.547l-0.016-0.031c-0.703-2.109-2.672-3.422-4.781-3.422c-0.531,0-1.078,0.063-1.609,0.25 c-2.641,0.891-4.063,3.75-3.172,6.391c1.469,4.359,2.672,8.859,3.563,13.359c0.484,2.406,2.578,4.063,4.938,4.063l0.984-0.094 c2.734-0.547,4.5-3.188,3.969-5.938l-0.125-0.609v-0.047h-0.016l-0.016-0.125v-0.016l-0.016-0.031v-0.016l-0.016-0.125 l-0.016-0.016v-0.016l-0.016-0.031v-0.031v-0.016l-0.016-0.078l-0.016-0.031v-0.016v-0.031v-0.031l-0.016-0.016v-0.047 l-0.016-0.031v-0.016v-0.031l-0.016-0.031l-0.016-0.031v-0.031v-0.031v-0.031l-0.016-0.031V136.5l-0.016-0.016v-0.031v-0.016 l-0.016-0.047v-0.016l-0.016-0.047v-0.016v-0.031l-0.016-0.031l-0.016-0.031v-0.016v-0.047v-0.016l-0.016-0.047v-0.016 l-0.016-0.047l-0.016-0.063l-0.016-0.047v-0.016v-0.047l-0.031-0.109v-0.016v-0.047l-0.016-0.016l-0.031-0.156l-0.016-0.016v-0.047 l-0.031-0.125v-0.047l-0.047-0.172v-0.016l-0.047-0.219l0,0c-0.594-2.594-1.266-5.156-2.031-7.656l-0.063-0.234l-0.094-0.328 l-0.016-0.016l-0.063-0.203l-0.047-0.172v-0.016l-0.031-0.047l0,0l-0.047-0.172l-0.047-0.156v-0.016l-0.016-0.047H454.5 l-0.031-0.109v-0.016l-0.016-0.047v-0.016l-0.031-0.094l0,0l-0.016-0.063l-0.016-0.047l-0.016-0.016v-0.047l-0.031-0.047v-0.016 v-0.047l-0.016-0.016l-0.016-0.031v-0.016l-0.016-0.047v-0.016l-0.016-0.031v-0.031l-0.016-0.031l-0.016-0.016v-0.047l0,0 l-0.031-0.047v-0.016v-0.047l-0.016-0.016l-0.016-0.031v-0.016l-0.016-0.047l-0.016-0.016v-0.047v-0.016l-0.016-0.031l-0.016-0.016 v-0.047l-0.016-0.016l-0.016-0.031V124.5l-0.016-0.031v-0.016l-0.016-0.016v-0.047l-0.016-0.031l-0.016-0.016v-0.031l-0.016-0.031 v-0.016L454,124.234v-0.031l-0.016-0.047l-0.016-0.016v-0.031l-0.016-0.016l-0.016-0.031v-0.016L453.922,124l-0.016-0.031v-0.031 v-0.016l-0.016-0.016v-0.031l-0.047-0.109v-0.016l-0.016-0.031l0,0l-0.016-0.031v-0.031l-0.031-0.063v-0.016V123.547z"/> <path class="st0" d="M339.234,279.984c0.531,0.016,1.063,0.016,1.594,0.016h0.016h0.031h0.016h0.078l0,0H341h0.031h0.031h0.031 h0.031h0.047h0.016h0.047h0.016h0.063h0.047h0.016h0.031h0.031h0.031l0,0h0.047h0.016h0.031h0.016h0.031h0.016h0.031h0.031h0.031 h0.016h0.016h0.031h0.031h0.016h0.031h0.016h0.031h0.031h0.094h0.016h0.047l0,0h0.031h0.031h0.031h0.016h0.031h0.016h0.031h0.031 h0.016h0.016h0.031h0.031h0.031h0.016h0.031h0.016h0.031h0.031h0.031l0,0h0.109h0.016h0.031h0.016h0.047l0,0h0.031h0.031h0.031 h0.016h0.031h0.016H343h0.016h0.047l0,0l0.031-0.016h0.031h0.031h0.016h0.047h0.156h0.047h0.016h0.031h0.016h0.047l0,0h0.047h0.016 h0.031l0,0l0.047-0.016h0.016h0.031h0.016h0.047l0,0h0.047h0.016h0.031h0.016h0.203h0.047h0.016h0.031h0.016h0.047l0,0h0.047h0.016 h0.031l0,0h0.063l0,0h0.031h0.016h0.047l0,0l0.406-0.031h0.063h0.047c3.141-0.094,6.266-0.313,9.344-0.641 c2.766-0.313,4.766-2.797,4.453-5.563c-0.281-2.578-2.453-4.5-5-4.5l-0.547,0.031c-3.953,0.438-7.969,0.656-11.953,0.656 c-0.625,0-1.266-0.016-1.891-0.016h-0.078c-2.75,0-5,2.203-5.047,4.938C334.25,277.641,336.469,279.922,339.234,279.984z"/> <path class="st0" d="M454.063,170.125c-2.531,0-4.688,1.875-5,4.438c-0.563,4.563-1.406,9.141-2.531,13.594 c-0.688,2.703,0.938,5.438,3.641,6.125l1.234,0.156c2.25,0,4.313-1.516,4.891-3.781c0.25-1.031,0.5-2.047,0.734-3.063v-0.016 v-0.047l0.031-0.125l0,0l0.016-0.047v-0.016l0.016-0.031v-0.016l0.016-0.063v-0.016l0.016-0.031v-0.031v-0.016v-0.031l0.016-0.031 l0.016-0.031v-0.031v-0.031v-0.016l0.016-0.031v-0.031l0.016-0.031l0,0l0.016-0.063v-0.016l0.016-0.047v-0.016v-0.031v-0.016 l0.031-0.109v-0.016v-0.047h0.016l0.016-0.047l0.016-0.125l0.016-0.047v-0.016l0.031-0.156c0.719-3.406,1.297-6.859,1.719-10.359 c0.344-2.766-1.625-5.266-4.391-5.609L454.063,170.125z"/> <path class="st0" d="M385.531,51.266l-0.094-0.047h-0.016l-0.047-0.016l0,0l-0.172-0.063l-0.172-0.078 c-0.875-0.344-1.766-0.688-2.656-1c-0.563-0.219-1.156-0.328-1.75-0.328c-2.047,0-3.969,1.266-4.719,3.297 c-0.969,2.625,0.375,5.516,2.984,6.484c4.297,1.594,8.547,3.469,12.641,5.609c0.734,0.391,1.531,0.563,2.313,0.563 c1.828,0,3.594-0.969,4.484-2.703c1.297-2.453,0.328-5.516-2.141-6.797c-3.047-1.594-6.188-3.063-9.391-4.406l0,0l-0.172-0.063l0,0 l-0.047-0.031l-0.109-0.031l-0.063-0.031l0,0l-0.094-0.047l-0.063-0.016l0,0l-0.156-0.063h-0.016l-0.156-0.078h-0.016l-0.031-0.016 l-0.125-0.047l0,0l-0.047-0.016h-0.016l-0.094-0.047v-0.016L385.531,51.266z"/> <path class="st0" d="M426.375,78.703c-0.984-1.016-2.297-1.516-3.609-1.516c-1.266,0-2.531,0.469-3.516,1.422 c-2,1.938-2.031,5.141-0.094,7.125c3.203,3.297,6.234,6.844,9,10.516c0.984,1.313,2.5,2.016,4.031,2.016 c1.063,0,2.109-0.328,3.031-1.016c2.219-1.656,2.656-4.813,1-7.063c-1.688-2.25-3.469-4.438-5.313-6.563l0,0l-0.094-0.094 l-0.031-0.031v-0.016l-0.063-0.078l-0.016-0.016l-0.031-0.031h-0.016l-0.031-0.047l0,0l-0.031-0.047V83.25l-0.031-0.031h-0.016 l-0.031-0.031H430.5l-0.031-0.047v-0.016l-0.031-0.031v-0.016l-0.031-0.031h-0.016L430.359,83h-0.016l-0.031-0.031v-0.016 l-0.031-0.031v-0.016l-0.031-0.031l-0.031-0.016l-0.016-0.016l-0.016-0.031l-0.016-0.016l-0.016-0.016l-0.031-0.047l-0.016-0.016 l-0.016-0.031l-0.016-0.016l-0.016-0.016l-0.031-0.016L430,82.609l-0.016-0.016l-0.016-0.031l-0.016-0.016l-0.016-0.016 l-0.063-0.078l-0.016-0.016l-0.016-0.031h-0.031l-0.063-0.094v-0.016l-0.031-0.016h-0.016l-0.078-0.094v-0.016l-0.031-0.031l0,0 l-0.094-0.094l0,0l-0.031-0.031V82l-0.094-0.078v-0.016l-0.016-0.031h-0.016l-0.109-0.125l0,0l-0.109-0.125v-0.016l-0.25-0.25 v-0.016C428.063,80.469,427.219,79.578,426.375,78.703z"/> <path class="st0" d="M63.375,123.641c13.219-19.547,29.75-36.625,48.688-50.609l11.75,24.953l67.047-70.219L88.641,23.25 l12.484,26.516C78.141,65.969,58.25,86.219,42.5,109.531C17.563,146.406,3,190.938,3,238.781h25.219 C28.219,196.078,41.188,156.531,63.375,123.641z"/> <path class="st0" d="M483.781,285.828c-0.016,41.422-12.203,79.875-33.188,112.172c-13.578,20.844-30.875,39.031-50.875,53.75 l-9.438-20.031l-67.031,70.219l102.219,4.516l-14.859-31.563c24.156-16.984,44.984-38.359,61.109-63.141 C495.281,375.531,509,332.219,509,285.828H483.781z"/> <path class="st0" d="M180,164.078c8.563,0.078,17,0.734,25.266,1.922c-0.047-1.531-0.109-3.063-0.109-4.625 c0-75.078,61.078-136.156,136.156-136.156s136.156,61.078,136.156,136.156c0,69.813-52.813,127.469-120.563,135.234 c2.422,8.031,4.328,16.266,5.672,24.703c79.063-10.422,140.109-78.031,140.109-159.938C502.688,72.25,430.438,0,341.313,0 S179.938,72.25,179.938,161.375C179.938,162.281,180,163.172,180,164.078z"/> <path class="st0" d="M225.094,371.813c0-11.984-6.781-20.188-21.344-22.719c4.781-1.844,10.109-7.219,11.703-9.125 c1.578-1.906,2.766-3.969,3.516-6.156c0.766-2.188,1.156-4.469,1.156-6.859c0-4.188-0.766-7.953-2.281-11.297 c-1.516-3.328-4-6.063-7.188-8.531c-5.672-4.406-13.922-6.5-20.625-7.063v-14.344h-12.375v14.125l-11.219-0.031v-14.094h-12.375 v14.063h-9.844h-12.703v11.266c0,2.438-0.172,3.906,2.359,4.406l0.938,0.172c0.422,0.063,5.375,0.219,6.469,0.375 c1.719,0.234,2.938,1.141,2.938,3.438V380.5c0,1.906-0.938,3.781-2.938,3.781c-1.094,0-6.047,0.313-6.469,0.375l-0.938,0.156 c-2.531,0.516-2.359,1.984-2.359,4.422v12.563h12.703h9.844v13.734h12.375v-13.734h11.219v13.734h12.375v-13.844 c4.594-0.25,9.5-0.953,13.422-2.156c4.953-1.5,7.859-3.594,11.234-6.234c3.406-2.656,5.969-5.828,7.75-9.484 C224.219,380.141,225.094,376.141,225.094,371.813z M167.125,317.859h10.031c5.297,0,9.188,0.875,11.688,2.609 c2.484,1.734,3.719,4.641,3.719,8.75c0,3.938-1.375,6.813-4.125,8.625c-2.781,1.797-6.813,2.719-12.156,2.719h-9.156V317.859z M195.188,376.156c-0.531,1.438-1.375,2.703-2.563,3.781c-1.188,1.094-2.766,1.969-4.734,2.625 c-1.953,0.641-4.406,0.969-7.328,0.969h-13v-23H180.5c2.766,0,5.125,0.234,7.063,0.75c1.953,0.5,3.563,1.25,4.797,2.188 c1.25,0.969,2.156,2.125,2.75,3.469c0.578,1.375,0.875,2.891,0.875,4.594C195.984,373.156,195.719,374.703,195.188,376.156z"/> <path class="st0" d="M178.313,189.25c-89.125,0-161.375,72.25-161.375,161.375S89.188,512,178.313,512 s161.375-72.25,161.375-161.375S267.438,189.25,178.313,189.25z M178.313,486.781c-75.094,0-136.172-61.078-136.172-136.156 s61.078-136.156,136.172-136.156c75.063,0,136.156,61.078,136.156,136.156S253.375,486.781,178.313,486.781z"/> <path class="st0" d="M163.844,243l0.641-0.047c4.547-0.578,9.203-0.859,13.828-0.859c1.25,0,2.5,0.016,3.75,0.063h0.188 c2.688,0,4.938-2.141,5.031-4.875c0.094-2.781-2.094-5.125-4.875-5.203l-0.5-0.016l0,0h-0.063h-0.016h-0.047h-0.016h-0.047h-0.031 l-0.078-0.016h-0.016h-0.031l0,0c-0.75-0.016-1.5-0.031-2.25-0.047h-0.125h-0.031h-0.031h-0.016h-0.078l0,0H179h-0.031h-0.031 h-0.031h-0.031h-0.047h-0.016h-0.047h-0.016h-0.047h-0.016h-0.063l0,0h-0.047h-0.031H178.5h-0.063h-0.016h-0.047l0,0h-0.063h-0.063 h-0.016h-0.047l0,0h-0.047h-0.016h-0.063l0,0H178l0,0h-0.047h-0.016h-0.031h-0.031h-0.047h-0.016h-0.031h-0.031h-0.031h-0.031 h-0.031h-0.016h-0.047l0,0h-0.063h-0.016h-0.047l0,0h-0.047h-0.016h-0.063l0,0h-0.063l0,0h-0.047h-0.016h-0.031h-0.031h-0.031 h-0.031h-0.031h-0.031H177h-0.031h-0.031h-0.016l-0.047,0.016l0,0h-0.063h-0.016h-0.047l0,0h-0.047h-0.016h-0.047h-0.016h-0.047 h-0.016h-0.031H176.5h-0.031h-0.031h-0.031h-0.016h-0.047h-0.031h-0.031h-0.031l-0.031,0.016h-0.016h-0.047l0,0h-0.063l0,0h-0.047 h-0.016h-0.047h-0.016h-0.047h-0.016h-0.047h-0.016h-0.031h-0.031h-0.031h-0.031h-0.031h-0.016h-0.047h-0.016h-0.047h-0.016H175.5 h-0.016h-0.047l0,0h-0.063l0,0h-0.047h-0.016l-0.047,0.016h-0.016h-0.047h-0.016h-0.047h-0.016h-0.031h-0.031h-0.031h-0.016h-0.047 h-0.016l-0.047,0.016h-0.016h-0.047l0,0h-0.047h-0.016h-0.047h-0.016h-0.063l0,0h-0.031h-0.031h-0.031h-0.031H174.5h-0.016h-0.047 h-0.031h-0.031h-0.016h-0.047h-0.016l-0.031,0.016h-0.016h-0.063h-0.016h-0.031h-0.016h-0.047h-0.016h-0.031H174l-0.047,0.016 h-0.016h-0.031h-0.031h-0.031h-0.016h-0.047h-0.016h-0.047h-0.016h-0.047l0,0h-0.047h-0.016h-0.047h-0.016h-0.063v0.016h-0.047 h-0.016h-0.031h-0.031h-0.031h-0.016h-0.047h-0.016h-0.047h-0.016h-0.047l0,0h-0.063l0,0L173,232.125h-0.063l0,0h-0.047h-0.016 h-0.031h-0.031h-0.047h-0.016h-0.031h-0.031h-0.031h-0.016h-0.047l0,0l-0.063,0.016l0,0h-0.063l0,0h-0.063l0,0l-0.047,0.016h-0.016 h-0.109h-0.016h-0.031h-0.016h-0.047H172h-0.016l-0.047,0.016l0,0h-0.063l0,0l-0.109,0.016h-0.016h-0.047h-0.016h-0.031h-0.016 h-0.109h-0.016h-0.047l0,0l-0.063,0.016h-0.125l0,0l-0.047,0.016h-0.016h-0.047h-0.125H171h-0.016l-0.047,0.016l0,0h-0.125 l-0.063,0.016l0,0h-0.172h-0.016h-0.031h-0.016l-0.047,0.016l0,0h-0.125l-0.063,0.016l0,0h-0.234 c-2.297,0.156-4.578,0.375-6.828,0.672c-2.766,0.359-4.719,2.875-4.375,5.641C159.172,241.141,161.344,243,163.844,243z"/> <path class="st0" d="M133.813,245.969c-0.859-1.813-2.656-2.859-4.547-2.859c-0.734,0-1.484,0.156-2.172,0.484 c-1.719,0.828-3.406,1.688-5.063,2.594l-0.313,0.156l-0.063,0.031l-0.094,0.063l-0.063,0.016v0.016l-0.094,0.047l-0.016,0.016 l-0.047,0.016v0.016l-0.047,0.016l-0.047,0.016l-0.016,0.016l-0.031,0.016l-0.016,0.016l-0.031,0.016h-0.016l-0.047,0.031h-0.016 l-0.031,0.031h-0.016L121,246.75h-0.016l-0.047,0.016l-0.016,0.016l-0.031,0.016l-0.016,0.016l-0.031,0.016l-0.031,0.016h-0.016 l-0.047,0.031v0.016l-0.031,0.016h-0.031l-0.031,0.031l0,0l-0.063,0.016l-0.016,0.016l-0.016,0.016L120.531,247h-0.016 l-0.016,0.031l-0.063,0.031l0,0l-0.047,0.016h-0.016l-0.031,0.016v0.016l-0.109,0.047l-0.047,0.031l0,0l-0.109,0.063l-0.047,0.031 l0,0l-0.156,0.078c-2.031,1.172-4.031,2.375-5.984,3.641c-2.328,1.516-2.984,4.641-1.484,6.969c0.969,1.484,2.594,2.297,4.25,2.297 c0.938,0,1.875-0.266,2.719-0.813c3.875-2.5,7.938-4.766,12.078-6.766C133.969,251.484,135.031,248.469,133.813,245.969z"/> <path class="st0" d="M142.5,453.125c-4.344-1.516-8.625-3.328-12.734-5.391c-0.734-0.359-1.5-0.531-2.266-0.531 c-1.844,0-3.625,1.016-4.5,2.781c-1.25,2.5-0.25,5.516,2.25,6.766c1.531,0.781,3.094,1.516,4.688,2.219l0.156,0.063v0.016 l0.156,0.078l0,0l0.063,0.016l0.047,0.031h0.016l0.031,0.016h0.016l0.047,0.016v0.016l0.047,0.016h0.016l0.031,0.016l0.031,0.016 l0.031,0.016l0,0l0.063,0.031l0.047,0.016h0.016l0.031,0.031h0.016l0.047,0.016l0,0l0.047,0.031h0.016l0.031,0.016l0.031,0.016H131 l0.016,0.016l0.047,0.016l0.016,0.016l0.031,0.016h0.016l0.031,0.016h0.016l0.031,0.016l0.047,0.016l0.016,0.016h0.031l0.016,0.016 l0.031,0.016h0.016l0.047,0.031h0.031l0.016,0.016l0.031,0.016h0.016l0.031,0.016l0.063,0.031l0,0l0.031,0.016h0.016l0.031,0.016 h0.016l0.094,0.047l0.031,0.016l0.031,0.016l0,0l0.109,0.047l0.016,0.016H132l0.016,0.016h0.031h0.016l0.063,0.031v0.016h0.031 l0.031,0.016l0.031,0.016l0,0l0.125,0.047v0.016h0.031l0.016,0.016l0.109,0.031v0.016h0.047l0.016,0.016l0.094,0.047h0.031 l0.031,0.016v0.016l0.125,0.047h0.031l0.016,0.016l0.156,0.063l0,0l0.172,0.063v0.016l0.031,0.016h0.016l0.109,0.031v0.016 l0.047,0.016h0.016l0.109,0.047h0.016l0.031,0.016l0,0l0.031,0.031h0.016l0.109,0.047l0.047,0.016h0.016l0.125,0.047l0.031,0.016 l0.125,0.063h0.031l0.016,0.016l0.125,0.047h0.047v0.016l0.109,0.047h0.016l0.031,0.016l0,0l0.047,0.016h0.016l0.094,0.063h0.031 h0.031v0.016l0.109,0.031l0.016,0.016h0.031l0.016,0.016l0.031,0.016h0.016l0.063,0.031h0.016l0.031,0.016l0.016,0.016h0.031h0.016 l0.047,0.016l0.031,0.016h0.031v0.016l0.031,0.016h0.031l0.047,0.031h0.016l0.031,0.016l0.031,0.016h0.031l0.016,0.016l0.016,0.016 l0.047,0.016h0.016l0.031,0.016h0.031l0.031,0.016h0.016l0.047,0.016l0.016,0.016l0.031,0.016h0.016l0.031,0.016l0.031,0.016 l0.031,0.016h0.031l0.031,0.016h0.016l0.031,0.031h0.016l0.047,0.016H136l0.031,0.016l0.031,0.016h0.031v0.016l0.063,0.016 l0.063,0.016l0.047,0.031h0.016l0.031,0.016l0,0l0.063,0.016l0,0l0.063,0.031l0,0l0.047,0.016l0.109,0.047l0,0l0.063,0.016l0,0 c0.828,0.313,1.672,0.609,2.516,0.906c0.547,0.203,1.109,0.297,1.656,0.297c2.078,0,4.047-1.313,4.766-3.391 C146.5,456.922,145.125,454.047,142.5,453.125z"/> <path class="st0" d="M92.594,417.234c-0.984-1.266-2.469-1.938-3.969-1.938c-1.094,0-2.188,0.344-3.094,1.063 c-2.188,1.703-2.594,4.859-0.906,7.063c0.938,1.188,1.875,2.328,2.828,3.484l0,0L87.531,427l0.031,0.031v0.016l0.078,0.094h0.016 l0.016,0.016l0.016,0.031l0.031,0.016v0.016l0.031,0.047l0.031,0.016v0.031l0.031,0.016v0.016l0.031,0.031l0.031,0.016v0.031 l0.031,0.016l0.016,0.031l0.016,0.016l0.031,0.031l0,0L88,427.563h0.016l0.016,0.031l0.031,0.016l0.031,0.047l0,0l0.031,0.031l0,0 l0.031,0.047v0.016l0.078,0.078l0.016,0.016l0.031,0.031l0,0l0.063,0.094l0.047,0.047c2.016,2.328,4.109,4.578,6.281,6.734 c0.984,0.984,2.266,1.469,3.547,1.469c1.313,0,2.594-0.5,3.594-1.484c1.953-1.969,1.938-5.172-0.031-7.141 C98.516,424.359,95.438,420.875,92.594,417.234z"/> <path class="st0" d="M65.344,343.844c2.547,0,4.734-1.938,5-4.531c0.469-4.594,1.25-9.172,2.297-13.641 c0.641-2.703-1.047-5.422-3.75-6.063l-1.172-0.125c-2.281,0-4.344,1.563-4.891,3.875c-1.141,4.859-1.984,9.844-2.516,14.922 c-0.281,2.75,1.719,5.25,4.5,5.531L65.344,343.844z"/> <path class="st0" d="M93.781,282.547c1.75-2.172,1.406-5.359-0.766-7.094c-0.938-0.766-2.047-1.125-3.172-1.125 c-1.469,0-2.922,0.641-3.906,1.875c-0.828,1.016-1.641,2.047-2.422,3.094l-0.078,0.109l-0.031,0.031l-0.109,0.141v0.016 l-0.109,0.125l-0.094,0.141v0.016l-0.109,0.141l-0.219,0.281c-1.328,1.797-2.609,3.641-3.828,5.531h-0.016l-0.094,0.156 l-0.016,0.031l-0.063,0.078l-0.016,0.031l-0.031,0.047l-0.047,0.063l-0.016,0.047h-0.016l-0.016,0.031l-0.016,0.016l-0.031,0.047 v0.016l-0.016,0.016l-0.016,0.031l-0.016,0.031l-0.016,0.016l-0.016,0.031l-0.016,0.031l-0.016,0.016l-0.016,0.031l-0.016,0.016 l-0.016,0.031l-0.016,0.016l-0.016,0.047l-0.016,0.016l-0.016,0.016l-0.016,0.016l-0.016,0.031l-0.016,0.016l-0.031,0.047v0.016 l-0.031,0.031v0.016l-0.016,0.031h-0.016l-0.063,0.109v0.016c-0.328,0.484-0.641,0.984-0.938,1.484 c-1.469,2.375-0.734,5.484,1.641,6.953c0.828,0.5,1.75,0.75,2.641,0.75c1.703,0,3.359-0.859,4.297-2.406 C88.188,289.922,90.875,286.125,93.781,282.547z"/> <path class="st0" d="M72.234,373.75c-0.516-2.359-2.609-3.969-4.922-3.969l-1.078,0.109c-2.719,0.594-4.453,3.266-3.859,5.984 c1.078,4.969,2.469,9.828,4.156,14.563c0.719,2.063,2.672,3.344,4.734,3.344c0.563,0,1.141-0.109,1.703-0.297 c2.625-0.938,3.984-3.813,3.063-6.453C74.484,382.719,73.203,378.25,72.234,373.75z"/> <path class="st0" d="M238.297,442.031c-0.906,0-1.828,0.266-2.672,0.781c-3.906,2.422-8,4.625-12.172,6.547 c-2.531,1.156-3.641,4.156-2.484,6.688c0.844,1.844,2.688,2.938,4.594,2.938c0.703,0,1.406-0.141,2.094-0.453 c2.781-1.281,5.516-2.656,8.188-4.141l0.047-0.031h0.016l0.094-0.063l0,0l0.047-0.031h0.016l0.094-0.047l0.031-0.031h0.016 l0.047-0.031l0,0l0.047-0.031h0.016l0.031-0.016l0.016-0.016l0.047-0.016l0,0l0.047-0.031l0.016-0.016l0.031-0.016l0.031-0.016 h0.016l0.016-0.016l0.047-0.031l0.016-0.016h0.031l0.031-0.016v-0.016h0.031l0.031-0.031l0.031-0.016l0.031-0.016l0.031-0.016 v-0.016h0.031l0.016-0.016l0.078-0.047l0.031-0.016l0,0l0.031-0.016h0.016l0.109-0.063l0,0l0.031-0.031 c1.281-0.734,2.547-1.5,3.797-2.266c2.359-1.469,3.078-4.578,1.609-6.938C241.625,442.891,239.984,442.031,238.297,442.031z"/> <path class="st0" d="M276.781,407.469c-0.844-0.531-1.781-0.781-2.719-0.781c-1.656,0-3.281,0.813-4.25,2.328 c-2.469,3.859-5.219,7.625-8.172,11.156c-1.797,2.141-1.5,5.328,0.641,7.109c0.938,0.781,2.094,1.156,3.219,1.156 c1.453,0,2.875-0.609,3.875-1.813c2.625-3.109,5.063-6.375,7.344-9.766l0,0l0.031-0.031l0.016-0.016l0.047-0.094h0.016l0.016-0.047 l0.016-0.016l0.031-0.031l0,0l0.031-0.047l0.016-0.016v-0.031l0.031-0.016l0.016-0.047l0,0l0.031-0.031l0.016-0.031l0.031-0.031 l0.016-0.047l0.016-0.016l0.031-0.031v-0.016l0.031-0.031v-0.016l0.016-0.031l0.016-0.016l0.031-0.031v-0.031l0.031-0.016v-0.031 l0.016-0.016l0.078-0.094v-0.016l0.016-0.016l0.016-0.016l0.063-0.109l0,0l0.016-0.031l0.016-0.016l0.094-0.141l0.75-1.172 C279.813,412.094,279.125,408.969,276.781,407.469z"/> <path class="st0" d="M289.688,333.406l1-0.094c2.719-0.547,4.5-3.188,3.969-5.922l-0.125-0.625v-0.016l-0.016-0.016v-0.016 l-0.016-0.125v-0.016l-0.016-0.031v-0.016l-0.031-0.125l0,0l-0.016-0.031v-0.031v-0.031v-0.016l-0.031-0.078v-0.016v-0.031v-0.031 l-0.016-0.016v-0.031l-0.016-0.031v-0.047V326l-0.016-0.031v-0.031l-0.016-0.031v-0.031v-0.031l-0.016-0.031l-0.016-0.016v-0.031 v-0.031v-0.031v-0.016l-0.031-0.047v-0.016v-0.031v-0.031l-0.016-0.031v-0.016l-0.016-0.063v-0.047v-0.016l-0.031-0.047v-0.016 v-0.031v-0.016l-0.016-0.063l-0.016-0.047v-0.016l-0.016-0.047L294.156,325v-0.016l-0.016-0.047h-0.016l-0.031-0.188l0,0v-0.047 l-0.031-0.109v-0.016l-0.016-0.047l0,0L294,324.359l-0.031-0.234h-0.016c-0.578-2.594-1.266-5.141-2.016-7.656l-0.063-0.234 l-0.109-0.328l-0.078-0.219l-0.047-0.172l-0.016-0.063l-0.047-0.172l-0.047-0.156l-0.031-0.063l0,0l-0.031-0.109v-0.016 l-0.016-0.031l-0.016-0.016l-0.031-0.109l0,0v-0.047v-0.016l-0.031-0.047v-0.016l-0.016-0.047l-0.016-0.047v-0.016l-0.016-0.047 l0,0l-0.016-0.063l-0.031-0.047v-0.016v-0.031l-0.016-0.016l-0.016-0.047v-0.016l-0.016-0.047l0,0l-0.016-0.047v-0.016 l-0.016-0.031l-0.016-0.031v-0.031l0,0L291.156,314v-0.016v-0.031l-0.016-0.016l-0.016-0.031v-0.031l-0.016-0.031l-0.016-0.031 v-0.031v-0.031l-0.016-0.016l-0.016-0.031v-0.016l-0.016-0.047l-0.016-0.031v-0.016v-0.031l-0.016-0.031L291,313.516V313.5v-0.031 l-0.031-0.063v-0.016v-0.031l-0.016-0.016l-0.016-0.031v-0.016l-0.016-0.047l-0.016-0.031v-0.031v-0.016l-0.031-0.016v-0.031 l-0.031-0.109V313l-0.016-0.016l-0.016-0.016v-0.031v-0.031l-0.031-0.063l-0.016-0.047l-0.016-0.016 c-0.703-2.125-2.656-3.438-4.766-3.438c-0.547,0-1.078,0.078-1.609,0.25c-2.641,0.891-4.063,3.766-3.188,6.406 c1.469,4.344,2.672,8.844,3.563,13.344C285.234,331.75,287.344,333.406,289.688,333.406z"/> <path class="st0" d="M190.813,458.484l-0.563,0.031c-3.938,0.438-7.953,0.656-11.938,0.656c-0.641,0-1.266,0-1.891-0.016h-0.094 c-2.734,0-4.984,2.188-5.047,4.953c-0.031,2.781,2.172,5.078,4.953,5.125c0.531,0.016,1.047,0.016,1.578,0.016h0.016h0.047l0,0 h0.078h0.016H178h0.031h0.031h0.031h0.031h0.031h0.031h0.047h0.016h0.063h0.031h0.031h0.031h0.016h0.031h0.016h0.031h0.031h0.031 h0.016h0.031h0.016h0.031h0.016h0.031h0.016h0.031h0.031h0.031h0.016h0.031h0.016h0.031h0.016h0.109l0,0h0.047h0.016h0.031h0.031 h0.031l0,0h0.031h0.031h0.031h0.016h0.031h0.016h0.031h0.031h0.031l0,0h0.031h0.031h0.031h0.016h0.031h0.016h0.094h0.031h0.031 h0.016h0.031h0.016h0.031h0.031h0.031l0,0h0.031h0.031H180h0.016h0.031h0.016h0.031h0.031h0.031l0,0h0.063l0,0l0.156-0.016l0,0 h0.047h0.047h0.016h0.031h0.016h0.031h0.016h0.047l0,0h0.047h0.016h0.031h0.016h0.031h0.016h0.031h0.031l0.031-0.016l0,0h0.219 h0.047h0.047l0,0h0.063h0.031h0.016h0.047l0,0h0.047h0.016h0.031h0.063l0.406-0.016h0.063l0.047-0.016 c3.141-0.078,6.266-0.313,9.344-0.641c2.766-0.313,4.766-2.797,4.453-5.578C195.531,460.406,193.344,458.484,190.813,458.484z"/> <path class="st0" d="M291.656,359.406l-0.594-0.031c-2.531,0-4.703,1.875-5.016,4.438c-0.547,4.563-1.391,9.141-2.531,13.594 c-0.688,2.703,0.953,5.438,3.641,6.125l1.25,0.156c2.25,0,4.297-1.516,4.875-3.781c0.266-1.031,0.5-2.031,0.75-3.063v-0.016v-0.047 l0.031-0.125l0,0v-0.031l0.016-0.031v-0.031l0.016-0.016v-0.063l0.016-0.016v-0.031l0.016-0.016v-0.031v-0.031v-0.016l0.016-0.047 l0.016-0.016v-0.031v-0.031v-0.031l0.016-0.031l0.016-0.031v-0.016v-0.047l0.016-0.063h0.016v-0.047v-0.016l0.031-0.109v-0.016 v-0.031v-0.016l0.016-0.047l0.031-0.125l0,0l0.016-0.047l0.031-0.172c0.719-3.406,1.297-6.859,1.719-10.344 C296.406,362.25,294.438,359.75,291.656,359.406z"/> <path class="st0" d="M215.875,248.766c4.313,1.594,8.563,3.484,12.641,5.609c0.75,0.391,1.547,0.578,2.328,0.578 c1.813,0,3.578-0.984,4.484-2.703c1.297-2.469,0.328-5.516-2.141-6.813c-3.063-1.594-6.188-3.063-9.406-4.406l-0.156-0.063 l-0.063-0.016l-0.094-0.047l-0.063-0.031l-0.109-0.047l-0.047-0.016h-0.016l-0.156-0.063l-0.156-0.063l-0.016-0.016l-0.047-0.016 l-0.109-0.047l-0.063-0.016l-0.094-0.047l-0.063-0.016l-0.109-0.063h-0.016l-0.031-0.016h-0.016l-0.156-0.063l-0.172-0.063v-0.016 c-0.875-0.344-1.766-0.688-2.656-1c-0.578-0.219-1.172-0.328-1.75-0.328c-2.047,0-3.969,1.266-4.719,3.297 C211.938,244.906,213.266,247.813,215.875,248.766z"/> <path class="st0" d="M269.188,287.516c1.047,0,2.109-0.328,3.016-1c2.234-1.672,2.672-4.844,1-7.063 c-1.688-2.266-3.453-4.453-5.297-6.578h-0.016l-0.078-0.078v-0.016l-0.031-0.031l-0.078-0.094l-0.016-0.016l-0.031-0.016v-0.016 l-0.031-0.047l-0.031-0.047h-0.016l-0.016-0.047h-0.031l-0.031-0.031l0,0l-0.031-0.047v-0.016l-0.031-0.031h-0.016l-0.031-0.031 l-0.016-0.031l-0.031-0.016v-0.016l-0.031-0.031v-0.016l-0.031-0.031v-0.016l-0.047-0.031l-0.016-0.016l-0.016-0.031l-0.016-0.016 l-0.016-0.016l-0.016-0.016L267.125,272l-0.031-0.031v-0.016l-0.031-0.016l-0.016-0.031h-0.016L267,271.859l-0.016-0.016 l-0.016-0.031l-0.016-0.016l-0.016-0.016l-0.078-0.063l-0.016-0.031l-0.016-0.016l-0.016-0.016l-0.063-0.094h-0.016l-0.016-0.031 h-0.016l-0.078-0.094v-0.016l-0.031-0.016l-0.016-0.031l-0.078-0.063v-0.016l-0.031-0.031v-0.016l-0.094-0.078l-0.031-0.031v-0.016 L266.234,271h-0.016l-0.094-0.125l-0.016-0.016l-0.234-0.25l0,0c-0.828-0.891-1.656-1.781-2.5-2.656 c-1-1.016-2.297-1.516-3.625-1.516c-1.25,0-2.531,0.469-3.5,1.422c-2,1.938-2.047,5.125-0.094,7.125 c3.188,3.297,6.219,6.859,8.984,10.531C266.125,286.828,267.656,287.516,269.188,287.516z"/> <path class="st0" d="M360.156,194.531c-4.469,2.406-10.094,3.594-16.906,3.594c-5.391,0-10.813-0.734-16.25-2.219 c-5.469-1.5-12.672-7.75-12.672-7.75c-1.234-0.75-2.844-0.563-3.891,0.469l-9.609,9.625c-0.703,0.672-1.016,1.641-0.891,2.609 c0.109,0.969,0.672,1.828,1.516,2.328c0,0,9.828,8.297,17.344,10.359c4.922,1.359,10.141,2.203,15.609,2.672v15.75h19.203v-16.078 c2.563-0.344,5.094-0.766,7.516-1.375c5.516-1.422,10.281-3.578,14.25-6.5c3.938-2.906,7.063-6.469,9.344-10.734 c2.266-4.25,3.406-9.203,3.406-14.906c0-9.469-2.875-16.703-8.625-21.672c-5.734-4.953-14.203-7.938-25.406-8.922L339,150.484 c-5.391-0.547-9.219-1.828-11.469-3.813c-2.281-1.984-3.406-4.813-3.406-8.5c0-4.125,1.594-7.438,4.781-10 c3.188-2.547,8.109-3.828,14.781-3.828c5.094,0,9.938,0.625,14.563,1.813c4.609,1.203,9.953,5.016,9.953,5.016 c1.219,0.625,2.703,0.359,3.672-0.609l9.016-9.156c0.703-0.719,1.031-1.688,0.875-2.703c-0.141-0.984-0.766-1.828-1.641-2.297 c0,0-7.063-5.531-13.813-7.359c-3.969-1.109-8.219-1.813-12.703-2.266V93.203h-19.203v13.859c-2.172,0.359-4.313,0.75-6.344,1.344 c-4.906,1.406-9.188,3.547-12.875,6.375c-3.688,2.813-6.594,6.297-8.719,10.406c-2.125,4.125-3.188,8.797-3.188,14.047 c0,9.484,2.75,16.578,8.297,21.266c5.516,4.656,13.391,7.5,23.578,8.5l17.25,1.469c5.219,0.594,8.953,1.922,11.156,4.063 c2.203,2.125,3.281,5.031,3.281,8.719C366.844,188.359,364.625,192.109,360.156,194.531z"/> </g> </g>
</svg>